<svg xmlns="http://www.w3.org/2000/svg" viewBox="0 0 64 64" width="64" height="64">
  <path fill="#fff" d="M48.5 51.9V36.1c0-8.8-7.2-16-16-16s-16 7.2-16 16v15.8h32z" />
  <path fill="#666" d="M4 51h56v6.5H4V51z"/>
  <path fill="#666" transform="rotate(-45 50.90001556 18.10071356)"  d="M47.1 15.6h7.6v5.1h-7.6z"/>
  <path fill="#666" d="M29.5 6.5h5.1v7.6h-5.1zM52.4 37c0-11.2-9.1-20.4-20.4-20.4S11.6 25.8 11.6 37v15.3H9.1l.7 4.2h44.7l.4-4.2h-2.5V37zm-5.2 15.3H16.7V37c0-8.4 6.7-15.3 15.2-15.3S47.2 28.6 47.2 37v15.3z"/>
  <path fill="#666" d="M26.9 25.4c-4.5 2-7.6 6.4-7.6 11.6h5.1c0-2.2 1-4.2 2.5-5.6v-6z"/>
  <path fill="#666" transform="rotate(-45 13.09966858 18.10011728)" d="M10.6 14.3h5.1v7.6h-5.1z"/>
  <path fill="#1d83d4" d="M29.5 25h5.1v17h-5.1zM29.5 44h5.1v5h-5.1z"/>
</svg>
